<?xml version="1.0" standalone="no"?>
<!DOCTYPE svg PUBLIC "-//W3C//DTD SVG 20010904//EN"
 "http://www.w3.org/TR/2001/REC-SVG-20010904/DTD/svg10.dtd">
<svg version="1.0" xmlns="http://www.w3.org/2000/svg"
 width="700.000000pt" height="700.000000pt" viewBox="0 0 700.000000 700.000000"
 preserveAspectRatio="xMidYMid meet">
<metadata>
Created by potrace 1.14, written by Peter Selinger 2001-2017
</metadata>
<g transform="translate(0.000000,700.000000) scale(0.100000,-0.100000)"
fill="#000000" stroke="none">
<path d="M2710 6989 c-530 -21 -1226 -76 -1436 -114 -413 -75 -720 -381 -819
-815 -14 -61 -18 -145 -22 -441 l-5 -366 -56 -6 c-131 -14 -271 -120 -335
-254 l-32 -68 0 -551 0 -550 37 -75 c65 -132 201 -232 332 -246 l56 -6 0 -767
c0 -813 4 -912 45 -1058 54 -190 194 -412 333 -527 l60 -50 4 -470 3 -470 28
-48 c15 -26 47 -60 69 -75 l42 -27 495 -3 c346 -2 508 0 534 8 51 15 119 84
135 136 8 29 12 142 12 383 l0 341 1310 0 1310 0 0 -341 c0 -241 4 -354 12
-383 16 -52 84 -121 135 -136 26 -8 188 -10 534 -8 l495 3 42 27 c22 15 54 49
69 75 l28 48 3 470 4 470 60 50 c139 115 279 337 333 527 41 146 45 245 45
1058 l0 767 57 6 c132 14 272 120 336 254 l32 68 0 550 0 550 -32 68 c-64 134
-204 240 -335 254 l-56 6 -5 366 c-4 296 -8 380 -22 441 -96 421 -390 723
-789 810 -162 35 -931 97 -1496 120 -280 11 -1258 11 -1550 -1z m1655 -449
c598 -28 1236 -84 1340 -117 205 -65 357 -233 401 -442 12 -62 14 -346 12
-2109 l-3 -2037 -23 -65 c-73 -203 -232 -361 -427 -423 l-70 -22 -2095 0
-2095 0 -70 22 c-98 31 -187 87 -264 164 -76 76 -121 147 -159 251 l-27 73 -3
2037 c-2 1763 0 2047 12 2109 44 209 196 376 401 442 119 38 968 106 1590 127
296 10 1182 4 1480 -10z"/>
<path d="M2845 6120 c-515 -18 -1283 -74 -1388 -101 -22 -6 -59 -28 -83 -51
-146 -135 -52 -378 147 -378 31 0 155 9 275 20 630 56 1140 74 1909 67 663 -6
1197 -32 1605 -77 213 -24 286 -7 347 83 64 95 52 209 -31 285 -24 23 -61 45
-83 51 -77 21 -687 69 -1153 91 -294 14 -1252 20 -1545 10z"/>
<path d="M2700 5240 c-364 -16 -811 -47 -1088 -75 -152 -16 -195 -30 -244 -82
-60 -63 -58 -26 -58 -919 0 -583 3 -828 11 -855 16 -52 61 -103 111 -127 43
-21 143 -33 488 -62 887 -73 1997 -79 2955 -14 422 28 645 52 692 75 51 25 96
76 112 128 8 27 11 272 11 855 0 893 2 856 -58 919 -62 66 -98 73 -582 112
-495 39 -716 47 -1435 50 -396 2 -808 -1 -915 -5z"/>
<path d="M1641 2614 c-182 -49 -316 -208 -328 -391 -13 -189 84 -355 257 -437
61 -29 72 -31 180 -31 108 0 119 2 180 31 173 82 270 248 257 437 -18 268
-287 461 -546 391z"/>
<path d="M2970 2619 c-120 -23 -254 -131 -306 -244 -111 -241 11 -522 262
-605 59 -20 80 -21 595 -18 l534 3 70 34 c219 107 312 366 211 586 -53 117
-187 221 -315 245 -66 12 -987 12 -1051 -1z"/>
<path d="M5141 2614 c-182 -49 -316 -208 -328 -391 -13 -189 84 -355 257 -437
61 -29 72 -31 180 -31 108 0 119 2 180 31 173 82 270 248 257 437 -18 268
-287 461 -546 391z"/>
</g>
</svg>
